<svg width="18" height="13" viewBox="0 0 18 13" fill="none" xmlns="http://www.w3.org/2000/svg">
<path d="M8.98719 1C6.30765 1 3.55902 2.611 1.39518 5.83301C1.33341 5.92599 1.29957 6.0359 1.29792 6.14886C1.29626 6.26181 1.32688 6.37274 1.3859 6.46763C3.04848 9.17108 5.76033 11.2853 8.98719 11.2853C12.179 11.2853 14.9465 9.16465 16.6122 6.45513C16.6698 6.3621 16.7005 6.25381 16.7005 6.14318C16.7005 6.03255 16.6698 5.92425 16.6122 5.83122C14.9427 3.15277 12.1549 1 8.98719 1Z" stroke="#081D81" stroke-width="1.5" stroke-linecap="round" stroke-linejoin="round"/>
<path d="M8.99889 8.99969C10.5179 8.99969 11.7492 7.72056 11.7492 6.14267C11.7492 4.56478 10.5179 3.28564 8.99889 3.28564C7.47991 3.28564 6.24854 4.56478 6.24854 6.14267C6.24854 7.72056 7.47991 8.99969 8.99889 8.99969Z" stroke="#081D81" stroke-width="1.5" stroke-miterlimit="10"/>
</svg>
